<svg width="24" height="22" viewBox="0 0 24 22" fill="none" xmlns="http://www.w3.org/2000/svg">
<path d="M20.8317 3.34669C21.901 4.4203 22.5014 5.87388 22.5014 7.38919C22.5014 8.9045 21.901 10.3581 20.8317 11.4317L12 20.3334L3.16835 11.4317C2.37414 10.6321 1.83342 9.61602 1.6139 8.51062C1.39437 7.40522 1.50578 6.25962 1.9342 5.21724C2.36261 4.17485 3.08898 3.28199 4.02238 2.65044C4.95578 2.01888 6.05474 1.67668 7.18169 1.66669C8.6886 1.67583 10.131 2.27961 11.195 3.34669C11.5054 3.65378 11.7758 3.99871 12 4.37335C12.2242 3.99871 12.4947 3.65378 12.805 3.34669C13.3293 2.81475 13.9541 2.39234 14.6431 2.10403C15.3321 1.81571 16.0715 1.66724 16.8184 1.66724C17.5652 1.66724 18.3047 1.81571 18.9936 2.10403C19.6826 2.39234 20.3074 2.81475 20.8317 3.34669Z" fill="#FF0000" stroke="white" stroke-width="2" stroke-linecap="round" stroke-linejoin="round"/>
</svg>
