<?xml version="1.0" encoding="UTF-8"?>
<!DOCTYPE svg  PUBLIC '-//W3C//DTD SVG 1.1//EN'  'http://www.w3.org/Graphics/SVG/1.1/DTD/svg11.dtd'>
<svg width="800pt" height="222pt" version="1.1" viewBox="0 0 800 222" xmlns="http://www.w3.org/2000/svg">
<g fill="#c30607">
<path d="m618.85 63.81c18.08-16.92 50.24-16.66 68.22 0.55 2.5 3.43-10.27 7.51 1.92 5.6 3.69-0.48 7.4 2.41 8.18 5.94-5.99 0.34-12-0.34-17.95 0.29-1.76 1.46-2.83 3.54-3.4 5.72 8.27 0.23 16.56-0.13 24.85 0.29 0.42 1.75 3.58 4.46 1.03 5.57-9.49 0.72-19.02-0.27-28.49 0.39-0.16 1.54-1.92 3.68 0.05 4.66 10.17 0.51 20.36-0.13 30.55 0.31 0.56 0.81 1.07 1.65 1.54 2.53-2.01 0.31-3.87 2.01-5.94 1.29-4.38-3.79-4.47 0.64-5.64 2.78-0.77 1.45-1.52 2.9-2.11 4.43-0.8-2.34-0.91-5.22-2.94-6.88-3.53-2.22-8.51-1.95-11.58 0.89-1.93 2.69-2.81 5.92-3.9 9-2.61-4.22-0.95 3.85-1.3 5.95-5.7 1.12-1.53-6.87-0.89-9.1 5-3.52 2.26-13.82-4.86-10.95-0.96 4.18-1.62 8.43-2.32 12.66-1.17 0.35-1.85 1.12-2.03 2.32-1.79-1.52-3.73-2.83-5.52-4.33-2.27-3.91 5.22-0.14 6.59-2.95 3.66-7.51-4.23-4.53-7.85-4.69-2.18 0.47-3.55 2.52-5.19 3.88-0.42-0.01-1.27-0.03-1.69-0.04-2.15-2.27-4.05-5.94-8.18-3.93-4.25-1.98-7.9 2-7.04 5.81 0.45-0.03 1.35-0.1 1.8-0.14 1.88 0.57 5.43-0.64 5.45 2.28-3.85 0.11-7.16 2.03-10.15 4.27-0.25-5.81 1.5-11.41 1.93-17.17-3.05 0-5.86-0.26-8.83 0.06-2.42 4.55-2.06 10.37-5.89 14.24-0.3-4.78-0.07-9.56-0.39-14.33-2.56-0.18-5.1-0.14-7.62 0.15-0.47 1.53-0.88 3.08-1.27 4.64-4.38 0.66-1.01 7.06-2.04 10.16-2.61 4.21-1.56 9.4-2.82 14.03l4.29-0.36c0.26-0.26 0.79-0.78 1.06-1.04 2.13-1.63 2.52-4.41 3.29-6.8 0 2.74 0.1 5.49 0.32 8.23 1.32-0.11 2.97 0.34 4.07-0.63 3.42-2.52 4.09-6.92 5.51-10.64 0.2 1.49 0.41 2.98 0.62 4.47-0.25 1.59-0.5 3.18-0.81 4.77-1.97 2.88 2.8 3.33 4.49 1.19 0.47-0.4 1.41-1.18 1.89-1.57 3.05 1.04 7.22 4.06 10.1 1.45 0.41-0.31 1.22-0.93 1.62-1.23 0.17 0.48 0.51 1.46 0.67 1.95 5.38-0.51 11.77 1.89 16.78-0.67 1.51-0.96 3.05-1.9 4.43-3.07 0.78 3.54 4.32 5.83 7.71 3.26 1.35-0.87 2.83-1.74 3.19-3.45 3.99 4.16 10.36 5.93 15.65 3.23 0.44-0.3 1.32-0.9 1.76-1.21 0.2 2.79 2.03 3.26 5.5 1.41 5.32-2.42 1.03-11.89 5.88-15.53 0.12 4.96 1.9 9.53 3.81 14.02-0.86 0.93-1.67 1.89-2.5 2.82-9.05 1.07-18.2-0.21-27.23 0.62-2.59 1.23-0.1 4.16 0.97 5.68 7.95 0.37 15.94-0.17 23.91 0.21-0.46 2.22-1.61 4.28-3.37 5.73-5.63 0.3-11.27 0.03-16.88 0.26 0.45 1.72 1.53 3.16 2.51 4.62 2.69 0.11 8.08 0.32 10.77 0.43-0.74 2.63-3.21 4.23-4.6 6.49-5.82 3.14-10.76 7.93-17.2 9.83-15.08 5.47-32.81 4.62-46.3-4.48-21.74-11.71-30.99-39.99-22.9-62.87 2.7-4.88 3.91-10.97 8.13-14.83 3.67-2.07 4.04-7.44 8.58-8.47z"/>
<path d="m648.04 107.9c2.34 1.8 4.64 3.68 7.21 5.15-2.19 1.27-4.56 0.23-6.87 0.14-0.52 1.14-1.05 2.28-1.58 3.41l-0.47-0.6c0.47-2.72 1.14-5.4 1.71-8.1z"/>
<path d="m635.97 110.03c1.35-0.07 2.7-0.07 4.06 0 0.1 1.5 0.02 3.99-2.03 3.92-2.06 0.07-2.15-2.42-2.03-3.92z"/>
<path d="m680.87 113.02c-0.96-4.96 5.16-2.75 8.34-3.29 0.47 0.07 1.4 0.2 1.87 0.27l1.11 0.23c-0.07 0.4-0.2 1.21-0.27 1.62-0.57 0.76-1.14 1.52-1.69 2.28-0.07-0.47-0.21-1.43-0.28-1.91-2.93 0.7-6.26 3.01-9.08 0.8z"/>
</g>
<g fill="#f8990d">
<path d="m708.64 53.47c19.49-5.98 41.8 0.2 55.09 15.78 3.3 5.42 7.99 9.9 9.65 16.43 11.25 26.03-3.38 59.52-30.26 68.57-10.32 4.88-23.29 5.62-34.1 1.67-7.36-2.53-15.24-5.21-20.48-11.29 1.39-2.26 3.86-3.86 4.6-6.49-2.69-0.11-8.08-0.32-10.77-0.43-0.98-1.46-2.06-2.9-2.51-4.62 5.61-0.23 11.25 0.04 16.88-0.26 1.76-1.45 2.91-3.51 3.37-5.73-7.97-0.38-15.96 0.16-23.91-0.21-1.07-1.52-3.56-4.45-0.97-5.68 9.03-0.83 18.18 0.45 27.23-0.62 0.83-0.93 1.64-1.89 2.5-2.82 3.15 2.61 8.77 4.84 12 1.25 0.89-0.43 1.81-0.8 2.77-1.11 1.84 3.05 5.43 3.55 8.43 1.95 0.4 0.01 1.19 0.02 1.59 0.03 1.78-0.37 5.67 1.36 5.28-1.69 1.02 0.52 1.99 1.16 3.02 1.71 1.58-0.01 3.7 0.72 4.91-0.67 3.8-3.37 1.7-9.55 4.78-13.49 0.14 0.88 0.44 2.62 0.59 3.49-1.24 5.13 2.27 12.68 8.66 10.79 2.42-1.18 6.76 1.35 9.03-0.88 0.38-0.41 1.13-1.22 1.51-1.63 1.45-8.44 2.39-16.97 4.34-25.32-1.02-1.64-3.1-1.21-4.71-1.15-1.42 1.94-1.66 4.42-2.36 6.65-2.29-1.43-5.08-1.88-7.72-1.7-2.05 1.32-5.54 5.13-5.38 0.28-3.12 0.49-6.33 0.36-9.44-0.1-0.09 0.7-0.27 2.11-0.36 2.81l-1.88 0.16c-3.66-4.46-10.55-4.06-15.21-1.35-2.11 1.13-5.79 1.88-2.82 6.07 2.32-0.42 4.66-1.11 7.04-0.57-2.61 1.53-4.93 3.47-6.85 5.79-1.54-2.55-1.4 1.94-2.11 3.01-2.93 0.23-6.23 1.56-8.77-0.39-2.23-3.6-1.89-8.53 0.3-12.06 0.53-2.03 2.95-0.75 4.46-1.1 1.91 0.01 4.87 2.34 5.6-0.46 1.22-1.7 1.64-3.66 1.26-5.89-3.9-1.7-8.69-1.92-12.4 0.32-1.4 1.59-2.78 3.19-4.28 4.69-0.22-0.38-0.67-1.16-0.89-1.55-0.47-0.88-0.98-1.72-1.54-2.53-10.19-0.44-20.38 0.2-30.55-0.31-1.97-0.98-0.21-3.12-0.05-4.66 9.47-0.66 19 0.33 28.49-0.39 2.55-1.11-0.61-3.82-1.03-5.57-8.29-0.42-16.58-0.06-24.85-0.29 0.57-2.18 1.64-4.26 3.4-5.72 5.95-0.63 11.96 0.05 17.95-0.29-0.78-3.53-4.49-6.42-8.18-5.94-12.19 1.91 0.58-2.17-1.92-5.6 7.56-2.64 13.2-9.89 21.57-10.89z"/>
<path d="m339.16 79.7c-2.98-0.35-12.04-5.88-1.17-3.7 8.65 0.03 17.31-0.14 25.96 0.05 1.97 1 4.33 2.11 4.42 4.64 1.67 9.13 4.71 18.22 4.41 27.58-4.43-3.8-6.02-9.85-10.3-13.7-4.06-2.54-7.12-6.49-11.61-8.39-4.29-1.49-7.28-5.47-11.71-6.48z"/>
<path d="m755.99 106.97c-0.01-2.68 1.46-4.68 4.18-3.1 1.5 1.69 1.93 3.88 1.96 6.08 0.33 5.07-10.49 2.69-6.14-2.98z"/>
<path d="m730.17 114.16c-2.29-0.94-4.54-3.61-0.86-4.51 0.42 1.47 0.63 3 0.86 4.51z"/>
</g>
<g fill="#409f38">
<path d="m16.14 70.04c9.26 0.02 18.53-0.28 27.79 0.05 8.82 1.9 10.53 11.5 12.24 18.87 2.93 8.89 6.27 17.77 8.04 26.98 0.42 0.01 1.26 0.03 1.69 0.04 2.84-9.42 5.11-19 8.74-28.16 1.6-6.92 3.46-15.66 11.42-17.76 9.63-0.06 19.27-0.23 28.91 0.01 0.05 25.3 0.06 50.6-0.01 75.9-7.97-0.01-15.95 0.22-23.93-0.04-0.15-14.98 0.1-29.97-0.07-44.96l-2.76 0.16c-5.21 14.78-8.86 30.07-14.42 44.74-5.87 0.11-11.76 0.4-17.63 0.03-3.73-13.82-8.77-27.26-12.9-41-0.23-1.81-0.74-4.48-3.2-3.96-0.19 15 0.08 30.01-0.09 45.02-7.91-0.1-15.85 0.43-23.75-0.12-0.27-0.27-0.81-0.79-1.07-1.06 0.2-24.9-1.25-49.91 1-74.74z" opacity=".98"/>
<path d="m126.04 70.03c7.97 0 15.95-0.22 23.93 0.04 0.22 14.9-0.25 29.81 0.2 44.71 1.04 2.29 2.68 0.17 3.44-1.1 3.96-9.47 8.62-18.61 13.39-27.68 2.87-5.36 4.79-11.51 9.23-15.83 9.24-0.26 18.49-0.3 27.74-0.11 0.05 25.3 0.06 50.61-0.01 75.91-7.98-0.01-15.96 0.22-23.93-0.04-0.15-14.98 0.1-29.97-0.07-44.96-4.31-1.11-4.53 4.39-6.07 6.99-4.81 10.47-9.29 21.1-14.53 31.36-1.58 2.35-2.66 5.55-5.66 6.38-9.21 0.51-18.45 0.39-27.67 0.24-0.06-25.3-0.06-50.61 0.01-75.91z" opacity=".98"/>
<path d="m216.05 104.03c23.65-0.09 47.31 0.01 70.97-0.05 1.71-0.12 3.3 0.55 4.87 1.17-2.25 6.41-6.98 11.68-13.2 14.47-12.23 4.87-25.87 1.23-38.66 2.44-0.22 7.96 0.19 15.94-0.1 23.9-7.97 0-15.94 0.23-23.9-0.03-0.04-13.96-0.11-27.93 0.02-41.9z" opacity=".98"/>
</g>
<path d="m212.96 70.04c19.97-0.04 39.94-0.13 59.92 0.04 3.82 3.16 10.51 3.34 13.92 8.12 5.71 5.41 7.7 14 7.09 21.6-0.28 0.27-0.84 0.79-1.12 1.05-17.23-0.03-34.55 1.04-51.7-1-8.46-3.19-17.34-6.56-22.93-13.99-2.24-5.05-5.2-10.13-5.18-15.82z" fill="#088bce"/>
<g fill="#0c457e">
<path d="m472.34 74.52c5.88-1.4 11.68 0.63 17.41 1.79 0.69 0.57 1.34 1.18 1.95 1.84-1.04 4.86-0.95 10.04-2.83 14.7-7.51-3.7-17.99-5.31-24.75 0.36-0.14 5.8 6.3 8.79 10.88 10.79 7.71 3.04 14.7 10.13 14 19-0.54 7.1-3.75 14.93-10.38 18.52-12.23 6.62-27.7 5.83-40.51 1.27 0.16-5.34 1.3-10.57 2.02-15.83 4.2 1.08 8.15 3.03 12.52 3.5 5.73 0.96 13.27 1.64 17.16-3.69 1.81-5.5-5.5-6.83-8.34-10.18-5.62-2.71-11.01-6.31-14.5-11.58-4.92-10.03 1.5-22.45 11-27.04 4.46-2.18 9.52-2.65 14.37-3.45z" opacity=".98"/>
<path d="m394.16 76.11c6.29-0.13 12.61-0.3 18.91-0.03-7.34 19.7-15.76 39.01-23.47 58.6-1.4 3.47-2.42 7.26-4.78 10.21-6.25 0.11-12.5 0.33-18.73 0.03-4.15-14.35-7.25-28.97-11.54-43.27 0.02-5.47-3.51-10.09-3.68-15.47 4.49 1.9 7.55 5.85 11.61 8.39 4.28 3.85 5.87 9.9 10.3 13.7 1.77 1.87 1.88 4.71 2.73 7.07 2.07 0.55-1.6 7.96 2.29 6.59 0.75-6.66 4.13-12.61 6.35-18.84 3.46-8.95 6.15-18.2 10.01-26.98z" opacity=".98"/>
<path d="m420.23 76.08c5.91-0.09 11.85-0.26 17.78-0.02-2.06 20.1-6.58 39.89-9.09 59.94-0.71 2.95 0.25 6.7-2.13 8.87-5.94 0.16-11.88 0.31-17.81 0.07 3.66-22.97 6.98-45.99 11.25-68.86z" opacity=".98"/>
<path d="m518.3 76.3c6.14-0.34 12.35-0.63 18.51-0.16 2.98 2.58 0.69 7.62 2.41 10.79 4.78 19.22 7.63 38.9 12.62 58.09-5.56-0.08-11.13 0.25-16.66-0.14-2.27-2.27-1.33-5.94-2.37-8.79-7.23-0.13-14.46 0.13-21.62-0.9-2.72 2.48-3.23 6.38-4.51 9.67-6.25 0.16-12.49 0.32-18.72 0.07 2.86-10.56 8.79-20.35 12.15-30.9 4.33-8.88 7.55-18.2 11.75-27.12 2.01-3.58 1.87-9.21 6.44-10.61m5.86 20.92c-3.1 7.63-6.75 15.5-8.21 23.72 4.35 0.23 8.69 0.05 13.07 0.02 0.06-8.17-2.79-16-4.14-23.99l-0.72 0.25z" opacity=".98"/>
<path d="m605.95 105.96c1.03-3.1-2.34-9.5 2.04-10.16-0.45 3.43-1.39 6.77-2.04 10.16z" opacity=".98"/>
<path d="m705.35 95.66c0.22 0.39 0.67 1.17 0.89 1.55-2.92 6.11-3.94 14.11 1 19.51 2.94 1.8 6.22 2.53 9.72 2.3-3.23 3.59-8.85 1.36-12-1.25-1.91-4.49-3.69-9.06-3.81-14.02 2.45-2.04 3.27-5.17 4.2-8.09z" opacity=".98"/>
<path d="m713.77 97c2.63 0.16 5.26 0.52 7.89 1.09-0.73 2.8-3.69 0.47-5.6 0.46-0.57-0.39-1.72-1.17-2.29-1.55z" opacity=".98"/>
<path d="m721.99 103.87c-2.97-4.19 0.71-4.94 2.82-6.07 0.06 1.34 0.17 2.68 0.32 4.02 3.21-0.21 9.05-2.79 8.96 2.21-1.72-0.09-3.39-0.43-5.06-0.73-2.38-0.54-4.72 0.15-7.04 0.57z" opacity=".98"/>
<path d="m740.02 99.15l1.88-0.16c-0.87 4.69-0.74 10.38-2.93 14.11 0.22-4.66 0.97-9.28 1.05-13.95z" opacity=".98"/>
<path d="m648.18 99.92c0.42 0.01 1.27 0.03 1.69 0.04-0.6 2.25-1.31 4.77 0.45 6.72 0.78 1.75 7.92 4.32 4.93 6.37-2.57-1.47-4.87-3.35-7.21-5.15 0.01-2.66 0.06-5.32 0.14-7.98z" opacity=".98"/>
<path d="m691.66 104.16c0.59-1.53 1.34-2.98 2.11-4.43 0.2 3.58-0.91 7.03-1.58 10.5l-1.11-0.23c0.06-1.96 0.33-3.9 0.58-5.84z" opacity=".98"/>
<path d="m634.76 101.66c1.51-0.15 4.52-0.44 6.03-0.59 1.32 1.07 1.97 3.53-0.58 2.87-0.02-2.92-3.57-1.71-5.45-2.28z" opacity=".98"/>
<path d="m681.93 100.99c2.04-0.76 5.52 1.2 3.41 3.34-2.29 2.24-3.11-1.6-3.41-3.34z" opacity=".98"/>
<path d="m760.17 103.87c-2.95-2.42 1.58-2.56 2.69-0.65 0.05 1.7 0.13 5.08 0.17 6.77l-0.9-0.04c-0.03-2.2-0.46-4.39-1.96-6.08z" opacity=".98"/>
<path d="m621.67 108.75c0.25-2.16 0.78-4.31 2.25-5.99 0.08 3.56-1.1 6.98-1.63 10.46-0.21-1.49-0.42-2.98-0.62-4.47z" opacity=".98"/>
<path d="m748.33 109.24c1.6-2.48-2.27-7.56 2.55-6.21-1.15 5.04-2.35 12.16 3.08 15.04 2.44 1.95 5.17-0.46 7.81-0.52 1.43 0.48 2.81 1.09 4.25 1.6-2.27 2.23-6.61-0.3-9.03 0.88-6.39 1.89-9.9-5.66-8.66-10.79z" opacity=".98"/>
<path d="m612.35 103.61c1.63 4.82 1.1 10.11 1.96 15.09 0.46 0.17 1.39 0.52 1.85 0.69-1.1 0.97-2.75 0.52-4.07 0.63-0.22-2.74-0.32-5.49-0.32-8.23 0.19-2.73 0.39-5.46 0.58-8.18z" opacity=".98"/>
<path d="m603.13 119.99c1.26-4.63 0.21-9.82 2.82-14.03 1.16 3.66-4.52 12.99 2.53 12.63-0.27 0.26-0.8 0.78-1.06 1.04l-4.29 0.36z" opacity=".98"/>
<path d="m661.84 108.05c0.18-1.2 0.86-1.97 2.03-2.32-0.41 3.66-1.36 7.28-0.73 11 1.35 2.1 3.7 2.49 6.03 2.57-3.39 2.57-6.93 0.28-7.71-3.26 0.29-2.65 0.24-5.33 0.38-7.99z" opacity=".98"/>
<path d="m671.94 113.12c0.35-2.1-1.31-10.17 1.3-5.95-2.12 8.52 7.17 14.06 14.77 11.91-5.29 2.7-11.66 0.93-15.65-3.23-0.11-0.68-0.32-2.05-0.42-2.73z" opacity=".98"/>
<path d="m720.07 112.1c0.71-1.07 0.57-5.56 2.11-3.01 0.07 2.89-0.75 6.11 1.15 8.56 1.55 0.85 3.2 1.49 4.83 2.21-3 1.6-6.59 1.1-8.43-1.95 0.15-1.93 0.24-3.87 0.34-5.81z" opacity=".98"/>
<path d="m627.86 117.61c0.32-2.99 0.53-6.13 1.9-8.86 0.15 1.74 0.43 5.21 0.57 6.94 1.58 2.86 4.5 3.83 7.63 3.37-2.88 2.61-7.05-0.41-10.1-1.45z" opacity=".98"/>
<path d="m678.82 109.03c2.6 0.18 7.79 0.53 10.39 0.7-3.18 0.54-9.3-1.67-8.34 3.29-1.27-0.89-1.58-2.61-2.05-3.99z" opacity=".98"/>
<path d="m729.31 109.65c-0.52-1.61 2.74-0.27 3.72-0.6 0.54 2.36-1.12 3.89-2.86 5.11-0.23-1.51-0.44-3.04-0.86-4.51z" opacity=".98"/>
<path d="m690.23 114.13c0.55-0.76 1.12-1.52 1.69-2.28-0.08 1.95-0.26 3.9-0.39 5.85 1.23 0.55 2.48 1.05 3.74 1.58-3.47 1.85-5.3 1.38-5.5-1.41 0.14-1.24 0.3-2.49 0.46-3.74z" opacity=".98"/>
<path d="m738.07 114.83c0.71 2.37 2.51 3.83 4.89 4.41-1.21 1.39-3.33 0.66-4.91 0.67-0.04-1.7-0.04-3.39 0.02-5.08z" opacity=".98"/>
<path d="m646.33 116l0.47 0.6c2.1 3.53 6.83 2.35 10.23 2.51-5.01 2.56-11.4 0.16-16.78 0.67-0.16-0.49-0.5-1.47-0.67-1.95 2.29-0.38 7.33 3.61 6.75-1.83z" opacity=".98"/>
<path d="m729.75 119.89c0.61-2.55 3.28-3.13 5.28-1.69 0.39 3.05-3.5 1.32-5.28 1.69z" opacity=".98"/>
<path d="m625.97 119.18c-1.69 2.14-6.46 1.69-4.49-1.19 1.5 0.39 3.22 0.12 4.49 1.19z" opacity=".98"/>
</g>
<g fill="#f5eeec">
<path d="m609.26 91.16c2.52-0.29 5.06-0.33 7.62-0.15 0.32 4.77 0.09 9.55 0.39 14.33 3.83-3.87 3.47-9.69 5.89-14.24 2.97-0.32 5.78-0.06 8.83-0.06-0.43 5.76-2.18 11.36-1.93 17.17 2.99-2.24 6.3-4.16 10.15-4.27 2.55 0.66 1.9-1.8 0.58-2.87-1.51 0.15-4.52 0.44-6.03 0.59-0.45 0.04-1.35 0.11-1.8 0.14-0.86-3.81 2.79-7.79 7.04-5.81 4.13-2.01 6.03 1.66 8.18 3.93-0.08 2.66-0.13 5.32-0.14 7.98-0.57 2.7-1.24 5.38-1.71 8.1 0.58 5.44-4.46 1.45-6.75 1.83-0.4 0.3-1.21 0.92-1.62 1.23-3.13 0.46-6.05-0.51-7.63-3.37-0.14-1.73-0.42-5.2-0.57-6.94-1.37 2.73-1.58 5.87-1.9 8.86-0.48 0.39-1.42 1.17-1.89 1.57-1.27-1.07-2.99-0.8-4.49-1.19 0.31-1.59 0.56-3.18 0.81-4.77 0.53-3.48 1.71-6.9 1.63-10.46-1.47 1.68-2 3.83-2.25 5.99-1.42 3.72-2.09 8.12-5.51 10.64-0.46-0.17-1.39-0.52-1.85-0.69-0.86-4.98-0.33-10.27-1.96-15.09-0.19 2.72-0.39 5.45-0.58 8.18-0.77 2.39-1.16 5.17-3.29 6.8-7.05 0.36-1.37-8.97-2.53-12.63 0.65-3.39 1.59-6.73 2.04-10.16 0.39-1.56 0.8-3.11 1.27-4.64m26.71 18.87c-0.12 1.5-0.03 3.99 2.03 3.92 2.05 0.07 2.13-2.42 2.03-3.92-1.36-0.07-2.71-0.07-4.06 0z"/>
<path d="m710.52 92.52c3.71-2.24 8.5-2.02 12.4-0.32 0.38 2.23-0.04 4.19-1.26 5.89-2.63-0.57-5.26-0.93-7.89-1.09 0.57 0.38 1.72 1.16 2.29 1.55-1.51 0.35-3.93-0.93-4.46 1.1-2.19 3.53-2.53 8.46-0.3 12.06 2.54 1.95 5.84 0.62 8.77 0.39-0.1 1.94-0.19 3.88-0.34 5.81-0.96 0.31-1.88 0.68-2.77 1.11-3.5 0.23-6.78-0.5-9.72-2.3-4.94-5.4-3.92-13.4-1-19.51 1.5-1.5 2.88-3.1 4.28-4.69z"/>
<path d="m767.16 91.05c1.61-0.06 3.69-0.49 4.71 1.15-1.95 8.35-2.89 16.88-4.34 25.32-0.38 0.41-1.13 1.22-1.51 1.63-1.44-0.51-2.82-1.12-4.25-1.6-2.64 0.06-5.37 2.47-7.81 0.52-5.43-2.88-4.23-10-3.08-15.04-4.82-1.35-0.95 3.73-2.55 6.21-0.15-0.87-0.45-2.61-0.59-3.49-3.08 3.94-0.98 10.12-4.78 13.49-2.38-0.58-4.18-2.04-4.89-4.41-0.06 1.69-0.06 3.38-0.02 5.08-1.03-0.55-2-1.19-3.02-1.71-2-1.44-4.67-0.86-5.28 1.69-0.4-0.01-1.19-0.02-1.59-0.03-1.63-0.72-3.28-1.36-4.83-2.21-1.9-2.45-1.08-5.67-1.15-8.56 1.92-2.32 4.24-4.26 6.85-5.79 1.67 0.3 3.34 0.64 5.06 0.73 0.09-5-5.75-2.42-8.96-2.21-0.15-1.34-0.26-2.68-0.32-4.02 4.66-2.71 11.55-3.11 15.21 1.35-0.08 4.67-0.83 9.29-1.05 13.95 2.19-3.73 2.06-9.42 2.93-14.11 0.09-0.7 0.27-2.11 0.36-2.81 3.11 0.46 6.32 0.59 9.44 0.1-0.16 4.85 3.33 1.04 5.38-0.28 2.64-0.18 5.43 0.27 7.72 1.7 0.7-2.23 0.94-4.71 2.36-6.65m-6.99 12.82c-2.72-1.58-4.19 0.42-4.18 3.1-4.35 5.67 6.47 8.05 6.14 2.98l0.9 0.04c-0.04-1.69-0.12-5.07-0.17-6.77-1.11-1.91-5.64-1.77-2.69 0.65m-30.86 5.78c-3.68 0.9-1.43 3.57 0.86 4.51 1.74-1.22 3.4-2.75 2.86-5.11-0.98 0.33-4.24-1.01-3.72 0.6z"/>
<path d="m666.19 93.07c7.12-2.87 9.86 7.43 4.86 10.95-0.64 2.23-4.81 10.22 0.89 9.1 0.1 0.68 0.31 2.05 0.42 2.73-0.36 1.71-1.84 2.58-3.19 3.45-2.33-0.08-4.68-0.47-6.03-2.57-0.63-3.72 0.32-7.34 0.73-11 0.7-4.23 1.36-8.48 2.32-12.66z"/>
<path d="m649.87 99.96c1.64-1.36 3.01-3.41 5.19-3.88 3.62 0.16 11.51-2.82 7.85 4.69-1.37 2.81-8.86-0.96-6.59 2.95 1.79 1.5 3.73 2.81 5.52 4.33-0.14 2.66-0.09 5.34-0.38 7.99-1.38 1.17-2.92 2.11-4.43 3.07-3.4-0.16-8.13 1.02-10.23-2.51 0.53-1.13 1.06-2.27 1.58-3.41 2.31 0.09 4.68 1.13 6.87-0.14 2.99-2.05-4.15-4.62-4.93-6.37-1.76-1.95-1.05-4.47-0.45-6.72z"/>
<path d="m677.14 98.17c3.07-2.84 8.05-3.11 11.58-0.89 2.03 1.66 2.14 4.54 2.94 6.88-0.25 1.94-0.52 3.88-0.58 5.84-0.47-0.07-1.4-0.2-1.87-0.27-2.6-0.17-7.79-0.52-10.39-0.7 0.47 1.38 0.78 3.1 2.05 3.99 2.82 2.21 6.15-0.1 9.08-0.8 0.07 0.48 0.21 1.44 0.28 1.91-0.16 1.25-0.32 2.5-0.46 3.74-0.44 0.31-1.32 0.91-1.76 1.21-7.6 2.15-16.89-3.39-14.77-11.91 1.09-3.08 1.97-6.31 3.9-9m4.79 2.82c0.3 1.74 1.12 5.58 3.41 3.34 2.11-2.14-1.37-4.1-3.41-3.34z"/>
<path d="m693.77 99.73c1.17-2.14 1.26-6.57 5.64-2.78 2.07 0.72 3.93-0.98 5.94-1.29-0.93 2.92-1.75 6.05-4.2 8.09-4.85 3.64-0.56 13.11-5.88 15.53-1.26-0.53-2.51-1.03-3.74-1.58 0.13-1.95 0.31-3.9 0.39-5.85 0.07-0.41 0.2-1.22 0.27-1.62 0.67-3.47 1.78-6.92 1.58-10.5z"/>
</g>
</svg>
