<svg width="24" height="22" viewBox="0 0 24 22" fill="none" xmlns="http://www.w3.org/2000/svg">
<path d="M20.8317 3.34667C21.901 4.42028 22.5014 5.87386 22.5014 7.38917C22.5014 8.90448 21.901 10.3581 20.8317 11.4317L12 20.3333L3.16834 11.4317C2.37412 10.6321 1.83341 9.616 1.61388 8.5106C1.39435 7.4052 1.50577 6.2596 1.93418 5.21722C2.36259 4.17483 3.08896 3.28198 4.02237 2.65042C4.95577 2.01886 6.05473 1.67667 7.18167 1.66667C8.68859 1.67581 10.1309 2.27959 11.195 3.34667C11.5053 3.65377 11.7758 3.9987 12 4.37334C12.2242 3.9987 12.4947 3.65377 12.805 3.34667C13.3293 2.81474 13.9541 2.39233 14.6431 2.10401C15.332 1.8157 16.0715 1.66722 16.8183 1.66722C17.5652 1.66722 18.3046 1.8157 18.9936 2.10401C19.6826 2.39233 20.3074 2.81474 20.8317 3.34667Z" fill="white" stroke="#FF0000" stroke-width="2" stroke-linecap="round" stroke-linejoin="round"/>
</svg>
